<mxfile host="app.diagrams.net" modified="2020-10-02T13:40:31.574Z" agent="5.0 (Windows NT 10.0; Win64; x64) AppleWebKit/537.36 (KHTML, like Gecko) Chrome/85.0.4183.121 Safari/537.36 Edg/85.0.564.63" etag="3N-MTofp8s9f1RXyGmIo" version="13.7.7" type="github">
  <diagram name="Page-1" id="03018318-947c-dd8e-b7a3-06fadd420f32">
    <mxGraphModel dx="1422" dy="772" grid="1" gridSize="10" guides="1" tooltips="1" connect="1" arrows="1" fold="1" page="1" pageScale="1" pageWidth="1100" pageHeight="850" background="#ffffff" math="0" shadow="0">
      <root>
        <mxCell id="0" />
        <mxCell id="1" parent="0" />
        <mxCell id="677b7b8949515195-2" value="&lt;font style=&quot;font-size: 87px;&quot;&gt;&lt;font style=&quot;font-size: 87px;&quot; color=&quot;#4a92ff&quot;&gt;G&lt;/font&gt;&lt;font color=&quot;#ff1414&quot; style=&quot;font-size: 87px;&quot;&gt;o&lt;/font&gt;&lt;font color=&quot;#fff345&quot; style=&quot;font-size: 87px;&quot;&gt;o&lt;/font&gt;&lt;font style=&quot;font-size: 87px;&quot; color=&quot;#4a92ff&quot;&gt;g&lt;/font&gt;&lt;font color=&quot;#47ff60&quot; style=&quot;font-size: 87px;&quot;&gt;l&lt;/font&gt;&lt;font color=&quot;#ff1414&quot; style=&quot;font-size: 87px;&quot;&gt;e&lt;/font&gt;&lt;font color=&quot;#fff345&quot; style=&quot;font-size: 87px;&quot;&gt;&amp;nbsp;&lt;/font&gt;&lt;/font&gt;" style="whiteSpace=wrap;html=1;rounded=0;shadow=0;labelBackgroundColor=none;strokeWidth=1;fontFamily=Sans-Serif Product Sans;fontSize=87;align=center;comic=1;fontSource=https%3A%2F%2Ffonts.googleapis.com%2Fcss%3Ffamily%3DSans-Serif%2BProduct%2BSans;strokeColor=#F5F5F5;fillColor=none;" parent="1" vertex="1">
          <mxGeometry x="360" y="180" width="410" height="210" as="geometry" />
        </mxCell>
        <mxCell id="LORGKalKXRCHP3hVERGS-8" value="&lt;font&gt;Pesquisa Google&lt;/font&gt;" style="strokeWidth=1;shadow=0;dashed=0;align=center;html=1;shape=mxgraph.mockup.buttons.button;mainText=;buttonStyle=round;fontSize=17;fontStyle=1;whiteSpace=wrap;fillColor=#F7FCFF;fontColor=#999999;strokeColor=#F2FAFF;" vertex="1" parent="1">
          <mxGeometry x="400" y="450" width="150" height="50" as="geometry" />
        </mxCell>
        <mxCell id="LORGKalKXRCHP3hVERGS-9" value="&lt;font&gt;Estou com sorte&lt;/font&gt;" style="strokeWidth=1;shadow=0;dashed=0;align=center;html=1;shape=mxgraph.mockup.buttons.button;mainText=;buttonStyle=round;fontSize=17;fontStyle=1;whiteSpace=wrap;fillColor=#F7FCFF;fontColor=#999999;strokeColor=#F7FEFF;" vertex="1" parent="1">
          <mxGeometry x="570" y="450" width="150" height="50" as="geometry" />
        </mxCell>
        <mxCell id="LORGKalKXRCHP3hVERGS-17" value="Gmail" style="text;html=1;strokeColor=none;fillColor=none;align=center;verticalAlign=middle;whiteSpace=wrap;rounded=0;shadow=0;sketch=0;fontFamily=Sans-Serif Product Sans;fontSize=20;fontColor=#999999;" vertex="1" parent="1">
          <mxGeometry x="780" y="30" width="40" height="20" as="geometry" />
        </mxCell>
        <mxCell id="LORGKalKXRCHP3hVERGS-18" value="Imagens" style="text;html=1;strokeColor=none;fillColor=none;align=center;verticalAlign=middle;whiteSpace=wrap;rounded=0;shadow=0;sketch=0;fontFamily=Sans-Serif Product Sans;fontSize=19;fontColor=#999999;" vertex="1" parent="1">
          <mxGeometry x="840" y="30" width="90" height="20" as="geometry" />
        </mxCell>
        <mxCell id="LORGKalKXRCHP3hVERGS-53" value="" style="verticalLabelPosition=bottom;shadow=0;dashed=0;align=center;html=1;verticalAlign=top;strokeWidth=1;shape=mxgraph.mockup.containers.userMale;strokeColor=#666666;strokeColor2=#008cff;sketch=0;fontFamily=Sans-Serif Product Sans;fontSize=19;fontColor=#666666;fillColor=none;" vertex="1" parent="1">
          <mxGeometry x="1020" y="10" width="60" height="60" as="geometry" />
        </mxCell>
        <mxCell id="LORGKalKXRCHP3hVERGS-56" value="" style="rounded=0;whiteSpace=wrap;html=1;shadow=0;sketch=0;fontFamily=Sans-Serif Product Sans;fontSize=87;fontColor=#666666;labelBackgroundColor=#CCFFFF;fillColor=#F7FCFF;strokeColor=#E6E6E6;" vertex="1" parent="1">
          <mxGeometry y="720" width="1100" height="40" as="geometry" />
        </mxCell>
        <mxCell id="LORGKalKXRCHP3hVERGS-58" value="" style="rounded=0;whiteSpace=wrap;html=1;shadow=0;sketch=0;fontFamily=Sans-Serif Product Sans;fontSize=87;fillColor=#F7FCFF;strokeColor=#E6E6E6;" vertex="1" parent="1">
          <mxGeometry y="760" width="1100" height="40" as="geometry" />
        </mxCell>
        <mxCell id="LORGKalKXRCHP3hVERGS-59" value="&lt;font style=&quot;font-size: 18px&quot;&gt;Publicidade&lt;/font&gt;" style="text;html=1;strokeColor=none;fillColor=none;align=center;verticalAlign=middle;whiteSpace=wrap;rounded=0;shadow=0;sketch=0;fontFamily=Sans-Serif Product Sans;fontSize=87;fontColor=#999999;" vertex="1" parent="1">
          <mxGeometry x="60" y="750" width="40" height="20" as="geometry" />
        </mxCell>
        <mxCell id="LORGKalKXRCHP3hVERGS-61" value="&lt;font style=&quot;font-size: 18px&quot;&gt;Negócios&lt;/font&gt;" style="text;html=1;strokeColor=none;fillColor=none;align=center;verticalAlign=middle;whiteSpace=wrap;rounded=0;shadow=0;sketch=0;fontFamily=Sans-Serif Product Sans;fontSize=87;fontColor=#999999;" vertex="1" parent="1">
          <mxGeometry x="160" y="750" width="40" height="20" as="geometry" />
        </mxCell>
        <mxCell id="LORGKalKXRCHP3hVERGS-62" value="&lt;span style=&quot;font-family: helvetica, arial, sans-serif; font-style: normal; font-weight: 400; letter-spacing: normal; text-align: center; text-indent: 0px; text-transform: none; word-spacing: 0px; display: inline; float: none;&quot;&gt;&lt;font style=&quot;font-size: 18px&quot;&gt;Sobre&lt;/font&gt;&lt;/span&gt;" style="text;whiteSpace=wrap;html=1;fontSize=87;fontFamily=Sans-Serif Product Sans;fontColor=#999999;" vertex="1" parent="1">
          <mxGeometry x="232" y="703" width="80" height="30" as="geometry" />
        </mxCell>
        <mxCell id="LORGKalKXRCHP3hVERGS-63" value="&lt;span style=&quot;font-family: helvetica, arial, sans-serif; font-style: normal; font-weight: 400; letter-spacing: normal; text-align: center; text-indent: 0px; text-transform: none; word-spacing: 0px; display: inline; float: none;&quot;&gt;&lt;font style=&quot;font-size: 18px&quot;&gt;Como funciona a Pesquisa&lt;/font&gt;&lt;/span&gt;" style="text;whiteSpace=wrap;html=1;fontSize=87;fontFamily=Sans-Serif Product Sans;fontColor=#999999;" vertex="1" parent="1">
          <mxGeometry x="297" y="702" width="220" height="100" as="geometry" />
        </mxCell>
        <mxCell id="LORGKalKXRCHP3hVERGS-55" value="&lt;font style=&quot;font-size: 20px&quot;&gt;Brasil&lt;/font&gt;" style="text;html=1;strokeColor=none;fillColor=none;align=center;verticalAlign=middle;whiteSpace=wrap;rounded=0;shadow=0;sketch=0;fontFamily=Sans-Serif Product Sans;fontSize=87;fontColor=#999999;" vertex="1" parent="1">
          <mxGeometry x="40" y="710" width="40" height="20" as="geometry" />
        </mxCell>
        <mxCell id="LORGKalKXRCHP3hVERGS-66" value="&lt;span style=&quot;font-family: helvetica, arial, sans-serif; font-style: normal; font-weight: 400; letter-spacing: normal; text-align: center; text-indent: 0px; text-transform: none; word-spacing: 0px; display: inline; float: none;&quot;&gt;&lt;font style=&quot;font-size: 18px&quot;&gt;Privacidade&lt;/font&gt;&lt;/span&gt;" style="text;whiteSpace=wrap;html=1;fontSize=87;fontFamily=Sans-Serif Product Sans;fontColor=#999999;" vertex="1" parent="1">
          <mxGeometry x="770" y="700" width="80" height="100" as="geometry" />
        </mxCell>
        <mxCell id="LORGKalKXRCHP3hVERGS-67" value="&lt;span style=&quot;font-family: helvetica, arial, sans-serif; font-style: normal; font-weight: 400; letter-spacing: normal; text-align: center; text-indent: 0px; text-transform: none; word-spacing: 0px; display: inline; float: none;&quot;&gt;&lt;font style=&quot;font-size: 18px&quot;&gt;Termos&lt;/font&gt;&lt;/span&gt;" style="text;whiteSpace=wrap;html=1;fontSize=87;fontFamily=Sans-Serif Product Sans;fontColor=#999999;" vertex="1" parent="1">
          <mxGeometry x="885" y="700" width="80" height="100" as="geometry" />
        </mxCell>
        <mxCell id="LORGKalKXRCHP3hVERGS-68" value="&lt;span style=&quot;font-family: helvetica, arial, sans-serif; font-style: normal; font-weight: 400; letter-spacing: normal; text-align: center; text-indent: 0px; text-transform: none; word-spacing: 0px; display: inline; float: none;&quot;&gt;&lt;font style=&quot;font-size: 18px&quot;&gt;Configurações&lt;/font&gt;&lt;/span&gt;" style="text;whiteSpace=wrap;html=1;fontSize=87;fontFamily=Sans-Serif Product Sans;fontColor=#999999;" vertex="1" parent="1">
          <mxGeometry x="960" y="700" width="80" height="100" as="geometry" />
        </mxCell>
        <mxCell id="LORGKalKXRCHP3hVERGS-74" value="" style="shape=delay;whiteSpace=wrap;html=1;shadow=0;labelBackgroundColor=#CCFFFF;sketch=0;fontFamily=Sans-Serif Product Sans;fontSize=87;strokeColor=#E6E6E6;" vertex="1" parent="1">
          <mxGeometry x="560" y="350" width="310" height="60" as="geometry" />
        </mxCell>
        <mxCell id="LORGKalKXRCHP3hVERGS-75" value="" style="shape=delay;whiteSpace=wrap;html=1;shadow=0;labelBackgroundColor=#CCFFFF;sketch=0;fontFamily=Sans-Serif Product Sans;fontSize=87;fontColor=#999999;rotation=-179.7;strokeColor=#E6E6E6;" vertex="1" parent="1">
          <mxGeometry x="250" y="349.85" width="310" height="60" as="geometry" />
        </mxCell>
        <mxCell id="LORGKalKXRCHP3hVERGS-82" value="" style="dashed=0;connectable=0;html=1;fillColor=#757575;strokeColor=none;shape=mxgraph.gcp2.live;part=1;" vertex="1" parent="1">
          <mxGeometry x="830" y="367.5" width="20" height="25" as="geometry" />
        </mxCell>
        <mxCell id="LORGKalKXRCHP3hVERGS-83" value="" style="shape=image;html=1;verticalAlign=top;verticalLabelPosition=bottom;labelBackgroundColor=#ffffff;imageAspect=0;aspect=fixed;image=https://cdn3.iconfinder.com/data/icons/google-material-design-icons/48/ic_keyboard_48px-128.png;shadow=0;sketch=0;strokeColor=#E6E6E6;fillColor=#ffffff;fontFamily=Sans-Serif Product Sans;fontSize=87;fontColor=#999999;" vertex="1" parent="1">
          <mxGeometry x="780" y="365" width="30" height="30" as="geometry" />
        </mxCell>
        <mxCell id="LORGKalKXRCHP3hVERGS-84" value="" style="html=1;verticalLabelPosition=bottom;align=center;labelBackgroundColor=#ffffff;verticalAlign=top;strokeWidth=2;shadow=0;dashed=0;shape=mxgraph.ios7.icons.looking_glass;sketch=0;fillColor=#ffffff;fontFamily=Sans-Serif Product Sans;fontSize=87;fontColor=#999999;strokeColor=#CCCCCC;" vertex="1" parent="1">
          <mxGeometry x="262" y="370" width="20" height="20" as="geometry" />
        </mxCell>
        <mxCell id="LORGKalKXRCHP3hVERGS-85" value="" style="shape=image;html=1;verticalAlign=top;verticalLabelPosition=bottom;labelBackgroundColor=#ffffff;imageAspect=0;aspect=fixed;image=https://cdn3.iconfinder.com/data/icons/google-material-design-icons/48/ic_apps_48px-128.png;shadow=0;sketch=0;strokeColor=#F7FEFF;fillColor=#ffffff;fontFamily=Sans-Serif Product Sans;fontSize=87;fontColor=#999999;" vertex="1" parent="1">
          <mxGeometry x="950" y="20" width="40" height="40" as="geometry" />
        </mxCell>
      </root>
    </mxGraphModel>
  </diagram>
</mxfile>
